PathFileType	4	(X/Y/Z)	Patient5_TMGait_0pt45_1_right_04.trc.trc
DataRate	CameraRate	NumFrames	NumMarkers	Units	OrigDataRate	OrigDataStartFrame	OrigNumFrames
55.776892430279	55.776892430279	4	32	mm	55.776892430279	18	       141
Frame#	Time	R.ASIS			L.ASIS			Chest			R.Shoulder			Neck			L.Shoulder			L.Elbow			L.Wrist			R.Elbow			R.Wrist			L.Thigh.Superior			L.Thigh.Lateral			L.Thigh.Inferior			L.Patella			L.Shank.Superior			L.Shank.Lateral			L.Shank.Inferior			L.Heel			L.Midfoot.Lateral			L.Midfoot.Superior			L.Toe			R.Thigh.Superior			R.Thigh.Lateral			R.Thigh.Inferior			R.Patella			R.Shank.Superior			R.Shank.Lateral			R.Shank.Inferior			R.Heel			R.Midfoot.Lateral			R.Midfoot.Superior			R.Toe			
		X1	Y1	Z1	X2	Y2	Z2	X3	Y3	Z3	X4	Y4	Z4	X5	Y5	Z5	X6	Y6	Z6	X7	Y7	Z7	X8	Y8	Z8	X9	Y9	Z9	X10	Y10	Z10	X11	Y11	Z11	X12	Y12	Z12	X13	Y13	Z13	X14	Y14	Z14	X15	Y15	Z15	X16	Y16	Z16	X17	Y17	Z17	X18	Y18	Z18	X19	Y19	Z19	X20	Y20	Z20	X21	Y21	Z21	X22	Y22	Z22	X23	Y23	Z23	X24	Y24	Z24	X25	Y25	Z25	X26	Y26	Z26	X27	Y27	Z27	X28	Y28	Z28	X29	Y29	Z29	X30	Y30	Z30	X31	Y31	Z31	X32	Y32	Z32	

18	6.414785714286	930.692274031411	1003.336435191798	535.435462988310	929.628470710761	960.666759745603	293.424244448768	956.613921041227	1447.199274963765	418.968329726904	834.066907052207	1505.086434823076	574.720991975360	825.765086104607	1559.131173984219	388.150017485930	914.642018635571	1505.882839205608	217.421337278379	913.455436661045	1170.003520730894	103.701651059699	1075.645622149876	936.724459386957	143.129818627507	739.314801682138	1184.099723332091	703.092275109304	959.371136712990	997.149900461097	671.662397272960	921.646676893586	732.060298688400	302.316972652595	833.407336201479	671.110630953829	265.264229151619	891.709735342807	604.636835162749	328.684393388316	864.730811369465	490.543795448588	336.528031360549	806.022536898720	394.729549754143	359.832723320558	727.678675259076	334.820719294908	288.727515647595	760.557843402982	277.918849016313	375.459927658030	603.046609821938	52.358270715680	386.546055315366	688.250390252674	28.825900325699	322.297389854703	787.100710906527	88.566118790568	361.377487026137	894.260932457823	45.300603239854	361.413910051553	1002.736836239362	791.963649545015	572.943764872506	948.186130220007	700.956798756821	636.993243529342	1041.047496194347	668.010046584100	566.860882867606	1072.284235351760	575.308469304867	609.449852383417	1047.937437506990	464.706044605378	578.167251500083	980.154451597202	389.446784734129	656.772471463318	1050.518148149962	324.548704306204	583.310813354982	963.631484509812	89.563110873517	552.209524084172	1041.262216337152	58.022263103459	626.875875894098	1139.103656134454	137.159524890303	623.624420899780	1246.550786044266	105.906899851674	625.158470982593	
19	6.432714285714	932.600904509592	999.772472093741	536.044617468431	929.773496331282	959.603627765748	294.327497631559	956.021439264905	1445.801477427890	421.476977737521	835.272703948075	1502.624216371382	578.934017691169	824.101287305780	1557.116631341846	392.550750010963	910.862117294438	1504.861321076438	220.439768668773	906.290659038946	1169.810370920758	104.564563127190	1065.775713539663	934.176804863948	141.476071657665	742.155838470628	1181.511036281918	708.017950914712	961.208226576689	993.977758998385	673.092932067497	919.642698329912	730.539759387260	302.546554896698	830.994148644176	670.449499005229	265.760336296025	889.076477482656	603.357173890468	329.002318687317	860.655697293597	489.190082503915	336.892385941838	801.074755369014	393.909217470907	360.269634238044	722.086933257522	334.829071838778	289.391604716864	754.486912600934	277.504523985842	375.813240783899	595.017995598418	52.511539717314	386.832983859975	680.146660413929	28.994659352041	322.529997415370	779.019719720349	88.510280816332	361.442548621408	886.145998234646	45.318315681743	361.271858399437	1001.582265864564	785.422838856789	572.187754519248	944.342631910460	694.458212790615	635.024522561851	1036.602771840828	660.619324479140	564.611179862517	1065.835206871626	567.402673513883	606.097783957273	1041.794453592331	457.849077902763	573.914436997394	973.834456847985	381.925553521280	651.593104591475	1044.986605945875	317.686988760041	578.279525235299	959.079183138129	82.835184450256	544.998703276248	1036.505368207942	50.588452026075	619.605904421639	1134.221030590820	129.920689160532	617.670654025655	1241.731084124577	98.838005699713	619.126424224554	
20	6.450642857143	934.618569079922	995.861500753403	536.978479299720	930.076861789482	958.332621674880	295.460166448130	955.657139686042	1444.154005236757	424.247623772650	836.788858122271	1499.885441235544	583.403368012218	822.697056249870	1554.854326380791	397.251602339942	907.245178016437	1503.612558183346	223.775318660386	899.229503991052	1169.560474563910	105.536280102036	1055.789155550096	931.427543694515	139.529228604334	745.479663002080	1178.554447318444	713.117063495249	963.493498581168	990.502230208155	674.560297050353	917.932381857835	728.882644959674	303.054210155018	828.805476533458	669.620168829342	266.401187984073	886.599025052630	601.892914168295	329.511609790209	856.752278040026	487.644472050842	337.438190726031	796.207734201850	392.942478392699	360.863221133028	716.668573753118	334.700900382585	290.131494305539	748.450433832458	276.979423037879	376.286678355753	586.982942656308	52.664529579716	387.173198591022	672.027213567291	29.203131774332	322.784988434522	770.915926963493	88.441428922409	361.560574084391	878.028344279009	45.313014557249	361.136004802157	1000.076448979718	778.497908247144	571.684422259701	939.873557675776	687.734257769039	633.131198775113	1031.624998565345	652.926792756263	562.605305530250	1058.691555640530	559.217359216550	602.954481210274	1034.909116205856	450.774435390345	569.716295928905	966.574548156122	374.259023585302	646.338246686496	1038.564295852853	310.615369034368	573.251075135550	953.426136810285	76.107419961003	537.682810911300	1030.437927662226	43.277999241207	612.454083136371	1128.261699193081	122.444318500977	611.564832314714	1235.753057819130	91.217145974597	613.206776351368	
21	6.468571428571	936.665808501339	991.737283042897	538.273137282444	930.517240229164	956.853598210445	296.863462571225	955.542978417728	1442.296420136011	427.289181798592	838.598884452782	1496.927826565262	588.114520857004	821.589131065528	1552.402706659678	402.241484973010	903.849511997428	1502.160737343869	227.419439664634	892.289917641764	1169.245998970526	106.678557233109	1045.697366591308	928.500978775954	137.347977540213	749.286071478049	1175.263175041600	718.335814769726	966.236722822881	986.762350996032	676.089538830232	916.564728222135	727.100091257498	303.856372842591	826.901543533391	668.609658751811	267.235898878494	884.359694855490	600.261816838618	330.232347610124	853.119845030468	485.879687970591	338.173795509787	791.499961466398	391.836791954147	361.624806294500	711.477301597370	334.462244244894	290.939311379948	742.493559326911	276.375753942865	376.891699634619	578.947693184148	52.868503951957	387.537730980868	663.900840113085	29.478558585024	323.046060796175	762.804342478183	88.368036052437	361.728479133511	869.910539766019	45.285403085893	361.007646690401	998.240352290084	771.471010705326	571.439994562865	934.969400792463	681.047696818689	631.369189392089	1026.288290920898	645.225391013010	560.843810540216	1051.133216870318	551.051155450188	600.018254576492	1027.542847276548	443.775081042676	565.611216144774	958.725899830946	366.752010480609	641.153767869249	1031.496085835485	303.625664689961	568.283097010352	946.871552487079	69.679643991765	530.490672531842	1023.254532138044	36.569603673596	605.705631734188	1121.481715605658	115.099983595300	605.286630871953	1228.846180235284	83.311249759706	607.436374591434	
